<?xml version="1.0" standalone="no"?>
<!DOCTYPE svg PUBLIC "-//W3C//DTD SVG 20010904//EN"
 "http://www.w3.org/TR/2001/REC-SVG-20010904/DTD/svg10.dtd">
<svg version="1.0" xmlns="http://www.w3.org/2000/svg"
 width="1104.000000pt" height="1104.000000pt" viewBox="0 0 1104.000000 1104.000000"
 preserveAspectRatio="xMidYMid meet">
<metadata>
Created by potrace 1.14, written by Peter Selinger 2001-2017
</metadata>
<g transform="translate(0.000000,1104.000000) scale(0.100000,-0.100000)"
fill="#000000" stroke="none">
<path d="M1211 6746 c0 -1893 3 -2465 12 -2468 10 -3 1189 -2 1209 1 7 1 11
116 8 186 -1 17 -2 37 -2 45 1 8 1 94 1 190 -1 96 0 182 0 190 1 8 1 31 0 50
0 19 0 42 0 50 0 8 0 94 0 190 -1 96 0 182 0 190 1 8 1 31 0 50 0 19 0 42 0
50 0 8 0 94 0 190 -1 96 0 182 0 190 1 8 1 31 0 50 0 19 0 42 0 50 0 8 0 94
-1 190 0 96 1 184 2 195 1 11 1 27 1 35 -1 41 0 204 2 275 2 73 4 80 22 80 11
0 26 -4 33 -9 6 -5 12 -5 12 0 0 11 112 10 128 0 7 -4 12 -3 12 1 0 7 51 8
125 2 6 0 25 1 43 4 17 2 32 1 32 -4 0 -4 13 -4 29 1 15 4 34 4 42 0 7 -5 17
-6 22 -3 15 9 67 10 67 0 0 -4 6 -5 13 0 17 10 97 10 97 -1 0 -5 5 -5 13 1 15
10 97 10 115 0 6 -5 12 -4 12 1 0 5 12 7 28 5 15 -2 41 -3 57 -3 17 1 36 1 43
1 32 -2 39 -2 70 2 17 2 32 -1 32 -6 0 -4 6 -5 13 0 16 10 68 11 90 0 9 -4 17
-4 17 0 0 4 29 8 65 8 36 0 65 -4 65 -8 0 -5 4 -6 9 -2 16 9 71 13 71 4 0 -5
10 -5 23 -1 25 9 59 8 76 -2 6 -4 11 -3 11 1 0 7 51 8 125 2 6 0 25 1 43 4 17
2 32 1 32 -4 0 -4 13 -4 29 1 15 4 34 4 42 0 7 -5 17 -6 22 -3 15 9 67 10 67
0 0 -4 6 -5 13 0 17 10 97 10 97 -1 0 -5 5 -5 13 1 15 10 97 10 115 0 6 -5 12
-4 12 1 0 5 12 7 28 5 15 -2 41 -3 57 -3 17 1 36 1 43 1 32 -2 39 -2 70 2 17
2 32 -1 32 -6 0 -4 6 -5 13 0 16 10 68 11 90 0 9 -4 17 -4 17 0 0 4 29 8 65 8
36 0 65 -4 65 -8 0 -5 4 -6 9 -2 17 10 71 13 71 3 0 -5 8 -5 18 0 9 4 35 7 57
5 58 -4 58 -4 88 0 15 2 27 0 27 -5 0 -5 5 -6 12 -2 18 11 78 11 78 1 0 -6 5
-6 13 -1 10 8 42 8 147 4 8 -1 27 1 43 3 15 2 27 0 27 -5 0 -5 5 -6 12 -2 17
11 78 11 78 1 0 -4 5 -5 12 -1 16 10 99 11 121 1 9 -4 17 -4 17 0 0 4 29 8 65
8 36 0 65 -4 65 -8 0 -5 5 -5 11 -2 16 10 69 12 69 3 0 -4 11 -3 25 2 13 5 26
6 29 1 3 -4 5 -471 6 -1037 1 -1204 1 -1027 0 -1204 -1 -80 -1 -158 0 -175 l0
-30 613 0 612 0 3 1220 c1 787 6 1221 12 1225 5 3 29 5 52 3 58 -5 59 -5 91 0
15 2 27 0 27 -5 0 -5 5 -6 12 -2 17 11 78 11 78 1 0 -4 5 -5 12 -1 7 4 30 7
52 6 57 -3 57 -3 94 1 17 2 32 -1 32 -6 0 -4 6 -5 13 0 17 10 97 10 97 -1 0
-5 6 -4 13 1 6 5 37 7 67 6 30 -2 60 -3 65 -3 6 -1 25 1 43 3 17 2 32 0 32 -3
0 -3 9 -6 20 -6 11 0 20 3 20 6 0 3 16 5 35 5 19 0 35 -4 35 -8 0 -4 8 -4 18
1 9 4 28 7 42 5 34 -5 41 -5 73 0 15 2 30 0 33 -5 3 -4 11 -5 17 -1 16 10 118
10 124 -1 3 -4 8 -3 12 2 4 6 12 7 19 3 11 -6 13 -183 12 -912 0 -497 -1 -911
-1 -919 0 -8 0 -107 1 -220 1 -113 0 -209 -1 -215 -1 -5 0 -14 1 -20 1 -5 1
-42 1 -81 -1 -50 2 -73 11 -76 7 -2 283 -4 613 -3 l600 1 2 2467 2 2467 -614
0 -614 0 2 -625 c2 -619 2 -626 -18 -630 -34 -7 -42 -7 -647 -6 l-588 1 0 630
0 630 -613 0 -614 0 1 -621 c1 -341 -2 -625 -5 -630 -3 -5 -750 -8 -1840 -7
l-1834 3 -1 625 0 625 -617 3 -616 2 0 -2464z"/>
<path d="M3673 5513 c-10 -4 -7 -1222 2 -1231 7 -8 1214 -10 1216 -2 1 3 2
281 3 618 1 538 -1 612 -14 613 -30 3 -1200 4 -1207 2z"/>
<path d="M1211 2435 l0 -614 85 -3 c47 -2 93 0 102 3 9 4 21 4 27 1 16 -10 45
-9 51 0 3 4 10 5 16 2 9 -6 129 -9 153 -4 6 1 12 1 15 0 17 -6 52 -5 56 2 3 4
10 5 16 2 9 -6 129 -9 153 -4 6 1 12 2 15 0 16 -6 108 -4 122 2 9 5 19 4 22
-1 6 -9 48 -7 65 3 5 4 12 2 16 -4 4 -7 12 -7 24 0 10 5 21 7 24 4 7 -8 214
-7 226 0 5 4 12 2 16 -4 13 -22 23 2 23 58 0 31 1 62 2 67 2 6 2 14 1 19 -3
13 -3 129 -1 141 1 6 2 14 1 19 -3 13 -3 129 -1 141 1 6 2 14 1 19 -3 13 -3
129 -1 141 1 6 2 14 1 19 -3 13 -3 129 -1 141 1 6 2 14 1 19 -3 13 -3 129 -1
141 1 6 2 14 1 19 -3 13 -3 129 -1 141 1 6 1 15 0 20 -1 6 -2 35 -1 66 l1 57
-615 0 -614 0 0 -613z"/>
<path d="M3673 3037 c-3 -6 -7 -282 -7 -613 l-1 -602 58 -4 c32 -2 66 0 75 3
9 4 21 4 27 1 16 -10 45 -9 51 0 3 4 10 5 16 2 9 -6 129 -9 153 -4 6 1 13 2
18 1 9 -3 125 -3 135 0 4 1 12 0 17 -1 13 -3 136 -2 150 0 6 1 13 2 18 1 4 -1
34 -2 67 -2 33 0 63 1 68 2 4 1 12 0 17 -1 22 -5 145 -1 154 4 5 4 12 3 14 -1
3 -5 47 -6 99 -3 l93 5 1 600 c0 330 -2 605 -4 611 -5 16 -1209 17 -1219 1z"/>
<path d="M6106 3041 c-2 -3 -4 -278 -4 -611 -1 -442 2 -606 11 -612 6 -3 19
-2 28 3 11 6 20 5 24 -1 3 -6 15 -6 30 0 13 5 27 6 29 1 4 -7 40 -7 56 -1 3 1
10 1 15 0 13 -3 136 -2 150 0 6 1 12 1 15 0 17 -6 52 -5 56 2 3 4 10 5 16 2 9
-6 129 -9 153 -4 6 1 12 2 15 0 16 -6 108 -4 122 2 9 5 19 4 22 -1 6 -9 48 -7
65 3 5 4 12 2 16 -4 4 -7 12 -7 24 0 10 5 21 7 24 4 7 -8 183 -7 196 0 5 4 12
3 14 -1 3 -5 37 -7 76 -5 l71 4 0 613 0 612 -610 0 c-336 0 -612 -2 -614 -6z"/>
<path d="M8600 2691 c0 -196 0 -369 0 -386 5 -145 4 -405 -1 -405 -3 0 -3 -17
0 -37 5 -32 11 -38 39 -44 18 -4 35 -3 38 2 3 5 10 6 16 3 9 -6 129 -9 153 -4
6 1 15 2 20 1 14 -3 209 -3 221 0 5 1 11 0 14 -1 17 -6 52 -5 56 2 3 4 10 5
16 2 9 -6 129 -9 153 -4 6 1 12 1 15 0 17 -6 52 -5 56 2 3 4 10 5 16 2 9 -6
129 -9 153 -4 6 1 12 2 15 1 16 -6 113 -5 123 1 6 4 16 4 21 1 14 -9 56 -10
56 -2 0 3 11 4 25 1 l25 -4 0 615 -1 615 -614 0 -614 0 -1 -357z"/>
</g>
</svg>
