<svg xmlns="http://www.w3.org/2000/svg" id="Layer_1" data-name="Layer 1" fill="currentColor" viewBox="0 0 724 54.81"><path class="cls-1" d="M8.66,11.21C7.07,9,6.25,8.76,4.34,8.54V4.77H19.2L35,25.53V12.25c0-2.89-1.26-3.55-4.81-3.71V4.77h14V8.54c-3.61.16-4.27.82-4.27,3.71V43.13H35.49L13.58,15.64v20c0,2.9,1.2,3.55,4.8,3.72v3.77h-14V39.36c3.66-.17,4.32-.82,4.32-3.72Z"/><path class="cls-1" d="M71.93,35.09c0,1.64.22,2.84,1.64,2.84a10.32,10.32,0,0,0,2.3-.32l.49,2.78a12.33,12.33,0,0,1-8,3.28c-3.22,0-5.36-2-6.39-5a10.24,10.24,0,0,1-8.64,4.75c-4.59,0-7.7-2.89-7.7-7.7s3.5-6.61,7.37-7.92l8.8-3.06V21.38c0-4.21-.87-5.52-3.06-5.52-1.91,0-2.78,1.42-2.78,3.39A12.78,12.78,0,0,0,56.47,23l-6.56,1a3.72,3.72,0,0,1-2.35-3.82c0-5.3,5.08-7.65,12.13-7.65C67.5,12.53,72,15,72,24.44,72,24.66,71.93,34.82,71.93,35.09ZM61.82,36.84v-9L58.6,29.14a3.8,3.8,0,0,0-2.68,4.09c0,2.63,1.26,4.32,3.44,4.32A4,4,0,0,0,61.82,36.84Z"/><path class="cls-1" d="M98.48,38.32a9.49,9.49,0,0,1-9.07,5.35c-6.55,0-11.2-5-11.2-14,0-10.76,6.61-16.77,15.41-16.77a7.92,7.92,0,0,1,4.86,1.31V8.92l-3-3.22v-2L107,1.54h1.75V35.2c0,1.86.43,2.9,2.07,2.95h1.31v3.77l-11.58,1.75H98.48ZM88.7,26.73c0,6.67,2.52,10.66,6.72,10.66a8.05,8.05,0,0,0,3.06-.66V21.92c0-3.6-.92-5.4-3.82-5.4C90.78,16.52,88.7,20.72,88.7,26.73Z"/><path class="cls-1" d="M141.16,35.09c0,1.64.22,2.84,1.64,2.84a10.24,10.24,0,0,0,2.29-.32l.49,2.78a12.33,12.33,0,0,1-8,3.28c-3.22,0-5.35-2-6.39-5a10.21,10.21,0,0,1-8.63,4.75c-4.59,0-7.71-2.89-7.71-7.7s3.5-6.61,7.38-7.92l8.8-3.06V21.38c0-4.21-.88-5.52-3.06-5.52-1.91,0-2.79,1.42-2.79,3.39a13.12,13.12,0,0,0,.49,3.77l-6.55,1a3.71,3.71,0,0,1-2.35-3.82c0-5.3,5.08-7.65,12.13-7.65,7.81,0,12.29,2.45,12.29,11.91C141.21,24.66,141.16,34.82,141.16,35.09Zm-10.11,1.75v-9l-3.23,1.31c-1.91.76-2.67,1.91-2.67,4.09,0,2.63,1.25,4.32,3.44,4.32A4,4,0,0,0,131.05,36.84Zm8.52-35.57L131.1,10h-5.3l3.72-8.74Z"/><path class="cls-1" d="M164.76,36A9.29,9.29,0,0,0,172.24,32l1.86,1.26c-1.91,7.21-6.5,10.38-13,10.38-7.93,0-13.72-5.57-13.72-14.42,0-9.62,6.18-16.72,15.63-16.72,5.63,0,10.71,2.67,10.71,8,0,2.24-1,3.72-2.35,4.27h-5.3V21.92c0-3.22-.77-5.51-3.72-5.51s-5.62,2.95-5.62,8.57C156.73,31.49,159.4,36,164.76,36Z"/><path class="cls-1" d="M190.6,36.35c0,2.51.88,2.79,3.34,3.11v3.67H177V39.46c2.46-.32,3.33-.6,3.33-3.11V20.23L177.27,17V15.26l11.53-2.79h1.8ZM179.73,5.53c0-2.78,2.13-5.19,5.63-5.19a5.19,5.19,0,0,1,5.57,5.19c0,2.79-2.08,5.19-5.57,5.19S179.73,8.32,179.73,5.53Z"/><path class="cls-1" d="M223.06,35.09c0,1.64.22,2.84,1.64,2.84a10.24,10.24,0,0,0,2.29-.32l.49,2.78a12.28,12.28,0,0,1-8,3.28c-3.23,0-5.36-2-6.4-5a10.21,10.21,0,0,1-8.63,4.75c-4.59,0-7.71-2.89-7.71-7.7s3.5-6.61,7.38-7.92l8.8-3.06V21.38c0-4.21-.88-5.52-3.06-5.52-1.91,0-2.79,1.42-2.79,3.39a13.12,13.12,0,0,0,.49,3.77L201,24a3.71,3.71,0,0,1-2.35-3.82c0-5.3,5.08-7.65,12.13-7.65,7.81,0,12.29,2.45,12.29,11.91C223.11,24.66,223.06,34.82,223.06,35.09ZM213,36.84v-9l-3.23,1.31c-1.91.76-2.67,1.91-2.67,4.09,0,2.63,1.25,4.32,3.44,4.32A4,4,0,0,0,213,36.84Z"/><path class="cls-1" d="M285.8,43.11V39.45c2.46-.33,2.84-.6,2.84-3.11V22.46c0-2.46-.87-3.44-3.55-3.44a13.73,13.73,0,0,0-4.59.92v16.4c0,2.51.44,2.78,2.9,3.11v3.66H267.33V39.45c2.46-.33,2.9-.6,2.9-3.11V22.46c0-2.46-.93-3.44-3.55-3.44a13.73,13.73,0,0,0-4.59.92v16.4c0,2.51.43,2.78,2.89,3.11v3.66h-16.5V39.45c2.46-.33,3.33-.6,3.33-3.11V20.44l-3.06-3.23v-2l11.53-3h1.81v6c2.24-2.57,5.19-5.74,10.05-5.74a7.78,7.78,0,0,1,8,6c2.29-2.51,5.79-6,10.87-6,4.92,0,7.92,2.63,7.92,8.86v15c0,2.51.82,2.78,3.28,3.11v3.66Z"/><path class="cls-1" d="M332,25v2.13H314.16c0,5.35,3.49,8.69,8.3,8.69a9.33,9.33,0,0,0,7.87-3.72l1.8,1.2c-1.42,6.23-5.9,10.33-12.89,10.33-8.14,0-14.21-5.52-14.21-14.59,0-10,6.78-16.56,15-16.56C327.93,12.51,332,18.2,332,25Zm-17.76-1.15h9c-.06-4.48-1.32-7.6-4.16-7.6C316,16.28,314.65,19.78,314.26,23.88Z"/><path class="cls-1" d="M336.5,40.49l-.33-6.61h4.7c1,4.15,3.17,6.17,7.27,6.17,2.73,0,4.64-1,4.64-3.11s-1.31-2.9-6.17-4c-7.05-1.59-10.44-4.48-10.44-10.11,0-6.67,4.65-10.33,11.92-10.33A18.61,18.61,0,0,1,358,15.08v6h-4.54c-.82-3.06-2.46-5-5.79-5-2.52,0-3.83,1.31-3.83,3.11s.88,2.85,6,3.77c6,1.15,10.44,3.83,10.44,10,0,6.83-4.59,10.66-12.41,10.66A20,20,0,0,1,336.5,40.49Z"/><path class="cls-1" d="M376.55,13.06h7.27v4.1h-7.27V34c0,2.57,1,3.77,3.39,3.77a9.19,9.19,0,0,0,4-1l1.1,2.79A13.66,13.66,0,0,1,375,43.66c-5.85,0-8.8-2.73-8.8-8.69V17.16h-3.61v-3c3.72-1.2,7.93-4.59,10.77-8h3.22Z"/><path class="cls-1" d="M413,35.08c0,1.64.21,2.84,1.63,2.84a10.42,10.42,0,0,0,2.3-.33l.49,2.79a12.33,12.33,0,0,1-8,3.28c-3.22,0-5.35-2-6.39-5a10.21,10.21,0,0,1-8.63,4.75c-4.59,0-7.71-2.9-7.71-7.7s3.5-6.62,7.38-7.93l8.8-3.06V21.37c0-4.21-.88-5.52-3.06-5.52-1.92,0-2.79,1.42-2.79,3.38a13.07,13.07,0,0,0,.49,3.77L391,24a3.73,3.73,0,0,1-2.35-3.83c0-5.3,5.09-7.65,12.14-7.65,7.81,0,12.29,2.46,12.29,11.92C413.05,24.64,413,34.81,413,35.08Zm-10.11,1.75v-9l-3.23,1.31a3.81,3.81,0,0,0-2.67,4.1c0,2.63,1.25,4.32,3.44,4.32A4,4,0,0,0,402.89,36.83Z"/><path class="cls-1" d="M434.23,39.34c3.66-.16,4.32-.82,4.32-3.71V12.24c0-2.9-.66-3.55-4.32-3.72V4.75h20.93c8.36,0,13.28,3.23,13.28,9.62,0,5.52-4.92,8.31-10.22,8.91,6.88.38,12.13,3.49,12.13,9.4,0,7.15-5.3,10.43-15.14,10.43h-21ZM449.37,8.69V21.48H451c4.43,0,6.94-2.08,6.94-6.67,0-4.37-2.73-6.12-7.27-6.12Zm0,16.66V35.74c0,2.95,1.14,3.71,4,3.71h.32c3.5,0,5.85-2.57,5.85-6.88s-2-7.22-7.87-7.22Z"/><path class="cls-1" d="M487.23,21.8c2.19-7.32,4.48-9.29,8.31-9.29a4.24,4.24,0,0,1,2.45.66V21.8h-1.31c-3.44,0-7,.22-9.45,2V36.45c0,2.4,1.26,2.57,4.37,3v3.66h-18V39.45c2.46-.33,3.34-.6,3.34-3.11V20.44l-3.06-3.23v-2l11.47-3h1.86Z"/><path class="cls-1" d="M526.24,35.08c0,1.64.22,2.84,1.64,2.84a10.42,10.42,0,0,0,2.3-.33l.49,2.79a12.33,12.33,0,0,1-8,3.28c-3.22,0-5.35-2-6.39-5a10.23,10.23,0,0,1-8.64,4.75c-4.59,0-7.7-2.9-7.7-7.7s3.5-6.62,7.38-7.93l8.79-3.06V21.37c0-4.21-.87-5.52-3.06-5.52-1.91,0-2.78,1.42-2.78,3.38a13.07,13.07,0,0,0,.49,3.77l-6.56,1a3.73,3.73,0,0,1-2.35-3.83c0-5.3,5.08-7.65,12.13-7.65,7.82,0,12.3,2.46,12.3,11.92C526.3,24.64,526.24,34.81,526.24,35.08Zm-10.11,1.75v-9l-3.22,1.31a3.82,3.82,0,0,0-2.68,4.1c0,2.63,1.26,4.32,3.44,4.32A4,4,0,0,0,516.13,36.83Z"/><path class="cls-1" d="M545.15,13.06h7.26v4.1h-7.26V34c0,2.57,1,3.77,3.38,3.77a9.23,9.23,0,0,0,4.05-1l1.09,2.79a13.66,13.66,0,0,1-10.11,4.15c-5.85,0-8.8-2.73-8.8-8.69V17.16h-3.6v-3c3.71-1.2,7.92-4.59,10.76-8h3.23Z"/><path class="cls-1" d="M569.13,36.34c0,2.51.88,2.78,3.33,3.11v3.66H555.53V39.45c2.45-.33,3.33-.6,3.33-3.11V20.22l-3.06-3.28V15.25l11.53-2.79h1.8ZM558.26,5.52c0-2.79,2.13-5.19,5.63-5.19s5.57,2.4,5.57,5.19-2.08,5.19-5.57,5.19S558.26,8.31,558.26,5.52Z"/><path class="cls-1" d="M576.34,40.49,576,33.88h4.69c1,4.15,3.17,6.17,7.27,6.17,2.73,0,4.65-1,4.65-3.11s-1.32-2.9-6.18-4C579.4,31.36,576,28.47,576,22.84c0-6.67,4.64-10.33,11.91-10.33a18.59,18.59,0,0,1,9.89,2.57v6h-4.54c-.82-3.06-2.46-5-5.79-5-2.51,0-3.82,1.31-3.82,3.11s.87,2.85,6,3.77c6,1.15,10.44,3.83,10.44,10,0,6.83-4.59,10.66-12.41,10.66A20,20,0,0,1,576.34,40.49Z"/><path class="cls-1" d="M616.72,36.34c0,2.51.82,2.78,3.28,3.11v3.66H603.17V39.45c2.51-.33,3.28-.6,3.28-3.11V8.91l-3-3.23v-2l11.48-2.13h1.8Z"/><path class="cls-1" d="M649.18,35.08c0,1.64.22,2.84,1.64,2.84a10.35,10.35,0,0,0,2.29-.33l.49,2.79a12.33,12.33,0,0,1-8,3.28c-3.22,0-5.35-2-6.39-5a10.21,10.21,0,0,1-8.63,4.75c-4.59,0-7.71-2.9-7.71-7.7s3.5-6.62,7.38-7.93l8.8-3.06V21.37c0-4.21-.88-5.52-3.06-5.52-1.91,0-2.79,1.42-2.79,3.38a13.07,13.07,0,0,0,.49,3.77l-6.55,1a3.71,3.71,0,0,1-2.35-3.83c0-5.3,5.08-7.65,12.13-7.65,7.81,0,12.29,2.46,12.29,11.92C649.23,24.64,649.18,34.81,649.18,35.08Zm-10.11,1.75v-9l-3.23,1.31a3.81,3.81,0,0,0-2.67,4.1c0,2.63,1.25,4.32,3.44,4.32A4,4,0,0,0,639.07,36.83Z"/><path class="cls-1" d="M685.67,16.67c-1.85.65-2.56,1-3.06,2.18L670.87,43.33h-3.12l-12.4-24.48c-.6-1.15-1.15-1.53-3.06-2.18V13.06h18.36v3.61c-2.84.38-3.66.65-3.66,2a4.08,4.08,0,0,0,.49,1.75l4.64,10.71L677,20.38a5,5,0,0,0,.43-1.75c0-1.31-.82-1.58-3.66-2V13.06h11.91Z"/><path class="cls-1" d="M689.28,18.85c-.55-1.15-1.15-1.53-3.06-2.18V13.06h18.36v3.61c-2.84.38-3.72.65-3.72,2a5.68,5.68,0,0,0,.6,2.13l4.59,11.15,4.7-11.2a5.52,5.52,0,0,0,.6-2.08c0-1.31-.76-1.58-3.6-2V13.06h11.91v3.61c-1.91.65-2.52,1-3.06,2.18L704,47.1c-2.3,5.08-4.76,7.38-8.58,7.38a5.55,5.55,0,0,1-4.7-2.13V47.16H694c3.82,0,5.24-.22,6.72-3.39l.27-.55Z"/></svg>